<svg width="130" height="130" viewBox="0 0 130 130" fill="none" xmlns="http://www.w3.org/2000/svg">
<path d="M44.5625 108.5L41.4375 104.625C49.6042 97.9167 57.4583 94.5625 65 94.5625C72.5417 94.5625 80.3958 97.9167 88.5625 104.625L85.4375 108.5C78.1875 102.542 71.375 99.5625 65 99.5625C58.625 99.5625 51.8125 102.542 44.5625 108.5ZM45.375 86.3125C43.1667 86.3125 41.2917 85.4375 39.75 83.6875C38.2083 81.8958 37.4375 79.75 37.4375 77.25C37.4375 75.6667 37.75 74.2083 38.375 72.875C39.0417 71.5417 39.8958 70.4792 40.9375 69.6875C38.7708 68.4792 36.9167 67.5417 35.375 66.875C33.875 66.2083 32.3958 65.6458 30.9375 65.1875L32.5625 60.4375C36.9792 61.8958 41.1875 63.7708 45.1875 66.0625C49.2292 68.3125 53.0833 70.9167 56.75 73.875L53.3125 77.9375C53.2708 78.2292 53.2292 78.5208 53.1875 78.8125C53.1875 79.0625 53.1458 79.3333 53.0625 79.625C52.6042 81.5417 51.6667 83.1458 50.25 84.4375C48.875 85.6875 47.25 86.3125 45.375 86.3125ZM84.625 86.3125C82.75 86.3125 81.1042 85.6875 79.6875 84.4375C78.3125 83.1458 77.3958 81.5417 76.9375 79.625C76.8958 79.3333 76.8542 79.0625 76.8125 78.8125C76.7708 78.5208 76.7292 78.2292 76.6875 77.9375L73.25 73.875C76.9167 70.9167 80.75 68.3125 84.75 66.0625C88.7917 63.7708 93.0208 61.8958 97.4375 60.4375L99.0625 65.1875C97.6458 65.6458 96.1667 66.2083 94.625 66.875C93.125 67.5417 91.2708 68.4792 89.0625 69.6875C90.1458 70.4792 91 71.5417 91.625 72.875C92.25 74.2083 92.5625 75.6667 92.5625 77.25C92.5625 79.75 91.7917 81.8958 90.25 83.6875C88.7083 85.4375 86.8333 86.3125 84.625 86.3125Z" fill="white"/>
</svg>
