<svg width="128" height="128" viewBox="0 0 128 128" fill="none" xmlns="http://www.w3.org/2000/svg">
<path fill-rule="evenodd" clip-rule="evenodd" d="M59.4415 54.7399C59.4427 52.7582 57.8372 51.1507 55.8555 51.1495L42.9449 51.1414C40.9632 51.1402 39.3557 52.7456 39.3545 54.7273C39.3532 56.709 40.9587 58.3165 42.9404 58.3178L55.851 58.3259C57.8327 58.3271 59.4402 56.7216 59.4415 54.7399Z" fill="white"/>
<path fill-rule="evenodd" clip-rule="evenodd" d="M68.7144 54.74C68.7156 56.7217 70.3231 58.3272 72.3048 58.3259L85.2154 58.3178C87.1971 58.3166 88.8026 56.7091 88.8013 54.7274C88.8001 52.7457 87.1926 51.1402 85.2109 51.1414L72.3003 51.1496C70.3186 51.1508 68.7131 52.7583 68.7144 54.74Z" fill="white"/>
<path fill-rule="evenodd" clip-rule="evenodd" d="M31.0439 73.2699C31.0439 75.2516 32.6504 76.8581 34.6321 76.8581H93.5238C95.5055 76.8581 97.112 75.2516 97.112 73.2699C97.112 71.2882 95.5055 69.6817 93.5238 69.6817H34.6321C32.6504 69.6817 31.0439 71.2882 31.0439 73.2699Z" fill="white"/>
</svg>
