<svg width="130" height="130" viewBox="0 0 130 130" fill="none" xmlns="http://www.w3.org/2000/svg">
<path d="M65 105.382C70.6667 105.382 76 104.419 81 102.493C75.5833 99.5201 70.25 98.0338 65 98.0338C59.75 98.0338 54.4167 99.5201 49 102.493C54 104.419 59.3333 105.382 65 105.382ZM65 108.836C59.7917 108.836 54.6458 107.998 49.5625 106.324C44.5208 104.649 39.9375 102.409 35.8125 99.6039C31.7292 96.7987 28.4583 93.6796 26 90.2464C23.5417 86.7714 22.3125 83.2754 22.3125 79.7585C22.3125 78.0419 22.6875 76.8277 23.4375 76.116C24.1875 75.3623 25.2083 74.9855 26.5 74.9855C27.4583 74.9855 28.5208 75.0902 29.6875 75.2995C30.8542 75.467 32.1875 75.7182 33.6875 76.0532C37.6875 76.9742 42.4583 77.7697 48 78.4396C53.5833 79.1095 59.25 79.4445 65 79.4445C70.75 79.4445 76.3958 79.1095 81.9375 78.4396C87.5208 77.7697 92.3333 76.9742 96.375 76.0532C97.875 75.7182 99.2083 75.467 100.375 75.2995C101.542 75.0902 102.583 74.9855 103.5 74.9855C104.833 74.9855 105.875 75.3623 106.625 76.116C107.375 76.8277 107.75 78.0419 107.75 79.7585C107.75 83.2754 106.521 86.7714 104.062 90.2464C101.604 93.6796 98.3125 96.7987 94.1875 99.6039C90.0625 102.409 85.4583 104.649 80.375 106.324C75.3333 107.998 70.2083 108.836 65 108.836ZM65 87.9227C68.9167 87.9227 73.1042 87.7762 77.5625 87.4831C82.0208 87.1482 86.4792 86.6457 90.9375 85.9759C95.3958 85.2641 99.5625 84.3849 103.438 83.3382V79.8841C103.438 79.2979 103.229 78.942 102.812 78.8164C102.438 78.649 101.979 78.628 101.438 78.7536C98.1042 79.5491 94.3125 80.2609 90.0625 80.8889C85.8125 81.5169 81.5 82.0193 77.125 82.3961C72.7917 82.7311 68.75 82.8986 65 82.8986C61.2917 82.8986 57.25 82.7311 52.875 82.3961C48.5 82.0193 44.1875 81.5169 39.9375 80.8889C35.7292 80.2609 31.9375 79.5491 28.5625 78.7536C28.0208 78.628 27.5417 78.649 27.125 78.8164C26.75 78.942 26.5625 79.2979 26.5625 79.8841V83.3382C30.4375 84.3849 34.6042 85.2641 39.0625 85.9759C43.5208 86.6457 47.9792 87.1482 52.4375 87.4831C56.9375 87.7762 61.125 87.9227 65 87.9227ZM44.25 65.4396C42.0417 65.4396 40.1875 63.9533 38.6875 60.9807C37.1875 58.0081 36.4375 54.3237 36.4375 49.9275C36.4375 45.5314 37.1875 41.847 38.6875 38.8744C40.1875 35.9018 42.0417 34.4155 44.25 34.4155C46.4583 34.4155 48.3125 35.9018 49.8125 38.8744C51.3542 41.847 52.125 45.5314 52.125 49.9275C52.125 54.3237 51.3542 58.0081 49.8125 60.9807C48.3125 63.9533 46.4583 65.4396 44.25 65.4396ZM85.75 65.4396C83.5417 65.4396 81.6875 63.9533 80.1875 60.9807C78.6875 58.0081 77.9375 54.3237 77.9375 49.9275C77.9375 45.5314 78.6875 41.847 80.1875 38.8744C81.7292 35.9018 83.5833 34.4155 85.75 34.4155C87.9583 34.4155 89.8125 35.9018 91.3125 38.8744C92.8542 41.847 93.625 45.5314 93.625 49.9275C93.625 54.3237 92.8542 58.0081 91.3125 60.9807C89.8125 63.9533 87.9583 65.4396 85.75 65.4396Z" fill="black"/>
</svg>
