<svg width="128" height="128" viewBox="0 0 128 128" fill="none" xmlns="http://www.w3.org/2000/svg">
<path fill-rule="evenodd" clip-rule="evenodd" d="M36.0852 85.3825C37.3943 86.8703 39.6616 87.0152 41.1494 85.7062C47.2794 80.3127 55.2358 77.0076 63.9988 77.0076C72.7635 77.0076 80.7182 80.3126 86.8506 85.7065C88.3386 87.0153 90.6058 86.8701 91.9147 85.3821C93.2235 83.8941 93.0782 81.6268 91.5902 80.318C84.2327 73.8465 74.6181 69.8312 63.9988 69.8312C53.3816 69.8312 43.7647 73.8464 36.4089 80.3183C34.9211 81.6274 34.7762 83.8947 36.0852 85.3825Z" fill="white"/>
<path fill-rule="evenodd" clip-rule="evenodd" d="M39.3943 57.2524C39.6974 59.2108 41.5307 60.5527 43.4891 60.2495L56.2478 58.2747C58.2062 57.9715 59.548 56.1382 59.2449 54.1798C58.9418 52.2215 57.1085 50.8796 55.1501 51.1827L42.3914 53.1576C40.433 53.4607 39.0912 55.2941 39.3943 57.2524Z" fill="white"/>
<path fill-rule="evenodd" clip-rule="evenodd" d="M88.6048 57.2524C88.9079 55.2941 87.5661 53.4607 85.6077 53.1576L72.849 51.1827C70.8906 50.8796 69.0573 52.2215 68.7542 54.1798C68.451 56.1382 69.7929 57.9715 71.7513 58.2747L84.5099 60.2495C86.4683 60.5527 88.3016 59.2108 88.6048 57.2524Z" fill="white"/>
</svg>
