<svg width="128" height="128" viewBox="0 0 128 128" fill="none" xmlns="http://www.w3.org/2000/svg">
<path d="M43.0635 57.6106C45.0951 57.248 47.1834 57.0475 49.3203 57.0475C51.4572 57.0475 53.5455 57.248 55.5771 57.6106C57.1853 56.0064 58.1798 53.7905 58.1798 51.3396C58.1798 46.446 54.2139 42.48 49.3203 42.48C44.4266 42.48 40.4607 46.446 40.4607 51.3396C40.4607 53.7905 41.4552 56.0064 43.0635 57.6106Z" fill="black"/>
<path d="M87.5308 69.3209C80.01 67.3865 72.1247 66.3555 63.9984 66.3555C55.8741 66.3555 47.9888 67.3865 40.4681 69.3209H40.46C40.46 82.3226 50.9987 92.8613 63.9984 92.8613C77.0001 92.8613 87.5389 82.3226 87.5389 69.3209H87.5308Z" fill="black"/>
<path d="M72.4236 57.6106C74.4552 57.248 76.5435 57.0475 78.6804 57.0475C80.8173 57.0475 82.9056 57.248 84.9372 57.6106C86.5454 56.0064 87.54 53.7905 87.54 51.3396C87.54 46.446 83.574 42.48 78.6804 42.48C73.7867 42.48 69.8208 46.446 69.8208 51.3396C69.8208 53.7905 70.8153 56.0064 72.4236 57.6106Z" fill="black"/>
</svg>
