<svg width="130" height="130" viewBox="0 0 130 130" fill="none" xmlns="http://www.w3.org/2000/svg">
<path d="M36.4375 121.188C39.8958 121.188 42.7708 120 45.0625 117.625C47.3542 115.25 48.5 112.25 48.5 108.625C48.5 105.792 47.9375 102.917 46.8125 100C45.7292 97.0417 44.4583 94.1875 43 91.4375L36.4375 78.75L29.875 91.4375C28.4583 94.1875 27.1875 97.0417 26.0625 100C24.9792 102.917 24.4375 105.792 24.4375 108.625C24.4375 112.333 25.5417 115.354 27.75 117.688C30 120.021 32.8958 121.188 36.4375 121.188ZM36.4375 125.875C33.2292 125.875 30.3542 125.125 27.8125 123.625C25.3125 122.125 23.3333 120.062 21.875 117.438C20.4583 114.854 19.75 111.917 19.75 108.625C19.75 105.375 20.375 102.062 21.625 98.6875C22.875 95.2708 24.2917 92.0625 25.875 89.0625L36.4375 69.3125L47.0625 89.0625C48.6875 92.0625 50.1042 95.2708 51.3125 98.6875C52.5625 102.062 53.1875 105.375 53.1875 108.625C53.1875 111.917 52.4583 114.854 51 117.438C49.5417 120.062 47.5417 122.125 45 123.625C42.5 125.125 39.6458 125.875 36.4375 125.875ZM87.875 100.062C83.5833 97.5625 79.6458 95.7708 76.0625 94.6875C72.5208 93.5625 68.8333 93 65 93C59.6667 93 54.0833 94.25 48.25 96.75L46.25 92.125C52.625 89.375 58.875 88 65 88C69.25 88 73.3958 88.625 77.4375 89.875C81.5208 91.0833 85.8333 93.0208 90.375 95.6875L87.875 100.062ZM43 66.25C40.875 66.25 39.0417 65.3333 37.5 63.5C35.9583 61.625 35.1875 59.4167 35.1875 56.875C35.1875 54.2917 35.9583 52.0833 37.5 50.25C39.0417 48.4167 40.875 47.5 43 47.5C45.125 47.5 46.9583 48.4167 48.5 50.25C50.0417 52.0833 50.8125 54.2917 50.8125 56.875C50.8125 59.4167 50.0417 61.625 48.5 63.5C46.9583 65.3333 45.125 66.25 43 66.25ZM26.25 47.25L21.75 45C25.5833 37.4583 32.125 32.0417 41.375 28.75L43 33.5C35.0833 36.2917 29.5 40.875 26.25 47.25ZM87 66.25C84.875 66.25 83.0417 65.3333 81.5 63.5C79.9583 61.625 79.1875 59.4167 79.1875 56.875C79.1875 54.2917 79.9583 52.0833 81.5 50.25C83.0417 48.4167 84.875 47.5 87 47.5C89.125 47.5 90.9583 48.4167 92.5 50.25C94.0417 52.0833 94.8125 54.2917 94.8125 56.875C94.8125 59.4167 94.0417 61.625 92.5 63.5C90.9583 65.3333 89.125 66.25 87 66.25ZM103.75 47.25C100.5 40.875 94.9167 36.2917 87 33.5L88.625 28.75C97.875 32.0417 104.417 37.4583 108.25 45L103.75 47.25Z" fill="white"/>
</svg>
