<svg width="128" height="128" viewBox="0 0 128 128" fill="none" xmlns="http://www.w3.org/2000/svg">
<path fill-rule="evenodd" clip-rule="evenodd" d="M64.0003 78.4116C55.2355 78.4116 47.2809 75.1066 41.1485 69.7127C39.6605 68.4039 37.3932 68.5491 36.0844 70.0371C34.7756 71.5251 34.9208 73.7924 36.4088 75.1012C43.7663 81.5727 53.381 85.588 64.0003 85.588C74.6174 85.588 84.2343 81.5728 91.5901 75.1009C93.0779 73.7918 93.2228 71.5245 91.9138 70.0367C90.6048 68.5489 88.3375 68.404 86.8497 69.713C80.7197 75.1065 72.7632 78.4116 64.0003 78.4116Z" fill="black"/>
<path fill-rule="evenodd" clip-rule="evenodd" d="M39.3948 57.2524C39.6979 59.2108 41.5312 60.5527 43.4896 60.2495L56.2483 58.2747C58.2067 57.9715 59.5485 56.1382 59.2454 54.1798C58.9423 52.2215 57.1089 50.8796 55.1506 51.1827L42.3919 53.1576C40.4335 53.4607 39.0917 55.2941 39.3948 57.2524Z" fill="black"/>
<path fill-rule="evenodd" clip-rule="evenodd" d="M88.6053 57.2524C88.9084 55.2941 87.5665 53.4607 85.6082 53.1576L72.8495 51.1827C70.8911 50.8796 69.0578 52.2215 68.7547 54.1798C68.4515 56.1382 69.7934 57.9715 71.7517 58.2747L84.5104 60.2495C86.4688 60.5527 88.3021 59.2108 88.6053 57.2524Z" fill="black"/>
</svg>
