<svg width="128" height="128" viewBox="0 0 128 128" fill="none" xmlns="http://www.w3.org/2000/svg">
<path d="M58.1796 51.3396C58.1796 56.2332 54.2137 60.1992 49.32 60.1992C44.4264 60.1992 40.4604 56.2332 40.4604 51.3396C40.4604 46.4459 44.4264 42.48 49.32 42.48C54.2137 42.48 58.1796 46.4459 58.1796 51.3396Z" fill="white"/>
<path d="M87.539 51.3396C87.539 56.2332 83.573 60.1992 78.6794 60.1992C73.7858 60.1992 69.8198 56.2332 69.8198 51.3396C69.8198 46.4459 73.7858 42.48 78.6794 42.48C83.573 42.48 87.539 46.4459 87.539 51.3396Z" fill="white"/>
<path d="M75.5234 76.6763H75.5193C71.8369 75.7283 67.9763 75.224 63.9982 75.224C60.0221 75.224 56.1615 75.7283 52.4791 76.6763H52.4751C52.4751 70.3121 57.6341 65.1511 64.0002 65.1511C70.3644 65.1511 75.5234 70.3121 75.5234 76.6763Z" fill="white"/>
</svg>
