<svg width="130" height="130" viewBox="0 0 130 130" fill="none" xmlns="http://www.w3.org/2000/svg">
<path d="M52.1875 109.25C49.6875 109.25 47.625 108.417 46 106.75C44.375 105.083 43.5625 103.021 43.5625 100.562C43.5625 97.8542 44.5208 95.3958 46.4375 93.1875C48.3958 90.9375 51 89.1667 54.25 87.875C57.5 86.5417 61.0833 85.875 65 85.875C68.9167 85.875 72.5 86.5417 75.75 87.875C79 89.1667 81.5833 90.9375 83.5 93.1875C85.4583 95.3958 86.4375 97.8542 86.4375 100.562C86.4375 103.021 85.625 105.083 84 106.75C82.375 108.417 80.3125 109.25 77.8125 109.25C76.1042 109.25 74.2292 108.979 72.1875 108.438C70.1458 107.854 67.75 107.562 65 107.562C62.25 107.562 59.8542 107.854 57.8125 108.438C55.7708 108.979 53.8958 109.25 52.1875 109.25ZM43 70C40.8333 70 38.9792 69.0833 37.4375 67.25C35.9375 65.375 35.1875 63.1667 35.1875 60.625C35.1875 58.0417 35.9583 55.8333 37.5 54C39.0417 52.1667 40.875 51.25 43 51.25C45.1667 51.25 47 52.1667 48.5 54C50.0417 55.8333 50.8125 58.0417 50.8125 60.625C50.8125 63.1667 50.0417 65.375 48.5 67.25C47 69.0833 45.1667 70 43 70ZM24.8125 36.125L21.5 32.375C24.3333 29.75 27.5833 27.6667 31.25 26.125C34.9167 24.5833 39.3333 23.8125 44.5 23.8125V28.8125C40.5 28.8125 36.9167 29.3958 33.75 30.5625C30.625 31.6875 27.6458 33.5417 24.8125 36.125ZM87 70C84.8333 70 82.9792 69.0833 81.4375 67.25C79.9375 65.375 79.1875 63.1667 79.1875 60.625C79.1875 58.0417 79.9583 55.8333 81.5 54C83.0417 52.1667 84.875 51.25 87 51.25C89.1667 51.25 91 52.1667 92.5 54C94.0417 55.8333 94.8125 58.0417 94.8125 60.625C94.8125 63.1667 94.0417 65.375 92.5 67.25C91 69.0833 89.1667 70 87 70ZM105.188 36.125C102.396 33.5417 99.4167 31.6875 96.25 30.5625C93.0833 29.3958 89.5 28.8125 85.5 28.8125V23.8125C90.6667 23.8125 95.0833 24.5833 98.75 26.125C102.458 27.6667 105.708 29.75 108.5 32.375L105.188 36.125ZM9.0625 43V32.5H12.1875V43H9.0625ZM18.125 43V20.625H21.25V43H18.125ZM27.1875 43V12.5H30.3125V43H27.1875ZM36.25 43V7.5H39.375V43H36.25ZM45.3125 43V5.625H48.4375V43H45.3125ZM54.375 43V3.125H57.5V43H54.375ZM63.4375 43V3.125H66.5625V43H63.4375ZM72.5 43V3.125H75.625V43H72.5ZM81.5625 43V5.625H84.6875V43H81.5625ZM90.625 43V7.5H93.75V43H90.625ZM99.6875 43V12.5H102.812V43H99.6875ZM108.75 43V20.625H111.875V43H108.75ZM117.812 43V32.5H120.938V43H117.812Z" fill="white"/>
</svg>
