<svg width="130" height="130" viewBox="0 0 130 130" fill="none" xmlns="http://www.w3.org/2000/svg">
<path d="M23.5 94.125C22.5833 93.6667 22.3333 92.9583 22.75 92L26.25 84.875C26.6667 83.875 27.3542 83.6042 28.3125 84.0625C29.3125 84.5208 29.5625 85.2083 29.0625 86.125L25.625 93.3125C25.125 94.2708 24.4167 94.5417 23.5 94.125ZM30.375 95.875C30 95.6667 29.7292 95.375 29.5625 95C29.3958 94.5833 29.4167 94.1667 29.625 93.75L34.75 83.125C35.25 82.125 35.9375 81.8542 36.8125 82.3125C37.2292 82.4792 37.5208 82.7708 37.6875 83.1875C37.8542 83.5625 37.8333 83.9583 37.625 84.375L32.4375 95.0625C31.9792 96.0208 31.2917 96.2917 30.375 95.875ZM38.875 94.125C37.9583 93.6667 37.7083 92.9583 38.125 92L41.625 84.875C42.0417 83.875 42.7292 83.6042 43.6875 84.0625C44.6875 84.5208 44.9375 85.2083 44.4375 86.125L41 93.3125C40.5 94.2708 39.7917 94.5417 38.875 94.125ZM54.25 105.438V100.438H75.75V105.438H54.25ZM35.6875 79.1875C32.2708 79.1875 29.1458 78.3542 26.3125 76.6875C23.4792 74.9792 21.2083 72.7083 19.5 69.875C17.8333 67.0417 17 63.9167 17 60.5C17 57.0417 17.8333 53.8958 19.5 51.0625C21.2083 48.2292 23.4792 45.9792 26.3125 44.3125C29.1458 42.6458 32.2708 41.8125 35.6875 41.8125C39.1458 41.8125 42.2917 42.6458 45.125 44.3125C47.9583 45.9792 50.2083 48.2292 51.875 51.0625C53.5417 53.8958 54.375 57.0417 54.375 60.5C54.375 63.9167 53.5417 67.0417 51.875 69.875C50.2083 72.7083 47.9583 74.9792 45.125 76.6875C42.2917 78.3542 39.1458 79.1875 35.6875 79.1875ZM35.6875 75.4375C38.4792 75.4375 41 74.7708 43.25 73.4375C45.5 72.0625 47.2917 70.25 48.625 68C49.9583 65.75 50.625 63.25 50.625 60.5C50.625 57.7083 49.9583 55.1875 48.625 52.9375C47.2917 50.6875 45.5 48.8958 43.25 47.5625C41 46.2292 38.4792 45.5625 35.6875 45.5625C32.9375 45.5625 30.4375 46.2292 28.1875 47.5625C25.9375 48.8958 24.125 50.6875 22.75 52.9375C21.4167 55.1875 20.75 57.7083 20.75 60.5C20.75 63.25 21.4167 65.75 22.75 68C24.125 70.25 25.9375 72.0625 28.1875 73.4375C30.4375 74.7708 32.9375 75.4375 35.6875 75.4375ZM35.6875 66.9375C33.8958 66.9375 32.375 66.3125 31.125 65.0625C29.875 63.8125 29.25 62.2917 29.25 60.5C29.25 58.7083 29.875 57.1875 31.125 55.9375C32.375 54.6458 33.8958 54 35.6875 54C37.4792 54 39 54.6458 40.25 55.9375C41.5417 57.1875 42.1875 58.7083 42.1875 60.5C42.1875 62.2917 41.5417 63.8125 40.25 65.0625C39 66.3125 37.4792 66.9375 35.6875 66.9375ZM86.3125 94.125C85.3958 93.6667 85.1458 92.9583 85.5625 92L89.0625 84.875C89.4792 83.875 90.1667 83.6042 91.125 84.0625C92.125 84.5208 92.375 85.2083 91.875 86.125L88.4375 93.3125C87.9375 94.2708 87.2292 94.5417 86.3125 94.125ZM93.1875 95.875C92.8125 95.6667 92.5417 95.375 92.375 95C92.2083 94.5833 92.2292 94.1667 92.4375 93.75L97.5625 83.125C98.0625 82.125 98.75 81.8542 99.625 82.3125C100.042 82.4792 100.333 82.7708 100.5 83.1875C100.667 83.5625 100.646 83.9583 100.438 84.375L95.25 95.0625C94.7917 96.0208 94.1042 96.2917 93.1875 95.875ZM27.1875 30.1875L25.25 26.3125C27.0833 25.3542 28.9792 24.6667 30.9375 24.25C32.9375 23.8333 35.0417 23.625 37.25 23.625C39.2083 23.625 41.2292 23.7917 43.3125 24.125C45.4375 24.4583 47.6458 24.9167 49.9375 25.5L48.8125 29.75C46.7708 29.1667 44.7708 28.7292 42.8125 28.4375C40.8958 28.1458 39.0625 28 37.3125 28C35.3958 28 33.6042 28.1875 31.9375 28.5625C30.2708 28.8958 28.6875 29.4375 27.1875 30.1875ZM101.688 94.125C100.771 93.6667 100.521 92.9583 100.938 92L104.438 84.875C104.854 83.875 105.542 83.6042 106.5 84.0625C107.5 84.5208 107.75 85.2083 107.25 86.125L103.812 93.3125C103.312 94.2708 102.604 94.5417 101.688 94.125ZM94.3125 79.1875C90.8958 79.1875 87.7708 78.3542 84.9375 76.6875C82.1042 74.9792 79.8333 72.7083 78.125 69.875C76.4583 67.0417 75.625 63.9167 75.625 60.5C75.625 57.0417 76.4583 53.8958 78.125 51.0625C79.8333 48.2292 82.1042 45.9792 84.9375 44.3125C87.7708 42.6458 90.8958 41.8125 94.3125 41.8125C97.7708 41.8125 100.917 42.6458 103.75 44.3125C106.583 45.9792 108.833 48.2292 110.5 51.0625C112.167 53.8958 113 57.0417 113 60.5C113 63.9167 112.167 67.0417 110.5 69.875C108.833 72.7083 106.583 74.9792 103.75 76.6875C100.917 78.3542 97.7708 79.1875 94.3125 79.1875ZM94.3125 75.4375C97.1042 75.4375 99.625 74.7708 101.875 73.4375C104.125 72.0625 105.917 70.25 107.25 68C108.583 65.75 109.25 63.25 109.25 60.5C109.25 57.7083 108.583 55.1875 107.25 52.9375C105.917 50.6875 104.125 48.8958 101.875 47.5625C99.625 46.2292 97.1042 45.5625 94.3125 45.5625C91.5625 45.5625 89.0417 46.2292 86.75 47.5625C84.5 48.8958 82.7083 50.6875 81.375 52.9375C80.0417 55.1875 79.375 57.7083 79.375 60.5C79.375 63.25 80.0417 65.75 81.375 68C82.7083 70.25 84.5 72.0625 86.75 73.4375C89.0417 74.7708 91.5625 75.4375 94.3125 75.4375ZM94.3125 66.9375C92.5208 66.9375 91 66.3125 89.75 65.0625C88.5 63.8125 87.875 62.2917 87.875 60.5C87.875 58.7083 88.5 57.1875 89.75 55.9375C91 54.6458 92.5208 54 94.3125 54C96.1042 54 97.625 54.6458 98.875 55.9375C100.167 57.1875 100.812 58.7083 100.812 60.5C100.812 62.2917 100.167 63.8125 98.875 65.0625C97.625 66.3125 96.1042 66.9375 94.3125 66.9375ZM102.812 30.1875C101.312 29.4375 99.7292 28.8958 98.0625 28.5625C96.4375 28.1875 94.6667 28 92.75 28C90.9583 28 89.1042 28.1458 87.1875 28.4375C85.2708 28.7292 83.2708 29.1667 81.1875 29.75L80.0625 25.5C82.3542 24.9167 84.5625 24.4583 86.6875 24.125C88.8125 23.7917 90.8333 23.625 92.75 23.625C94.9583 23.625 97.0625 23.8333 99.0625 24.25C101.062 24.6667 102.958 25.3542 104.75 26.3125L102.812 30.1875Z" fill="black"/>
</svg>
