<svg width="128" height="128" viewBox="0 0 128 128" fill="none" xmlns="http://www.w3.org/2000/svg">
<path d="M43.0627 57.6105C45.0943 57.248 47.1826 57.0475 49.3195 57.0475C51.4564 57.0475 53.5447 57.248 55.5763 57.6105C57.1846 56.0063 58.1791 53.7904 58.1791 51.3396C58.1791 46.4459 54.2132 42.48 49.3195 42.48C44.4259 42.48 40.46 46.4459 40.46 51.3396C40.46 53.7904 41.4545 56.0063 43.0627 57.6105Z" fill="black"/>
<path d="M83.0369 69.0416C77.25 67.5529 71.1836 66.7609 64.9309 66.7609C58.6802 66.7609 52.6138 67.5529 46.8269 69.0416H46.8208C46.8208 79.0436 54.9289 87.1537 64.9309 87.1537C74.9349 87.1537 83.043 79.0436 83.043 69.0416H83.0369Z" fill="black"/>
<path d="M72.4221 57.6105C74.4537 57.248 76.542 57.0475 78.6789 57.0475C80.8158 57.0475 82.9041 57.248 84.9357 57.6105C86.544 56.0063 87.5385 53.7904 87.5385 51.3396C87.5385 46.4459 83.5725 42.48 78.6789 42.48C73.7853 42.48 69.8193 46.4459 69.8193 51.3396C69.8193 53.7904 70.8139 56.0063 72.4221 57.6105Z" fill="black"/>
</svg>
