<svg width="130" height="130" viewBox="0 0 130 130" fill="none" xmlns="http://www.w3.org/2000/svg">
<path d="M33.125 59.1875L29.6875 56.4375C33.4792 50.6875 38.125 47.8125 43.625 47.8125C49.0833 47.8125 53.75 50.6875 57.625 56.4375L54.1875 59.1875C51.3125 54.7292 47.7917 52.5 43.625 52.5C39.5 52.5 36 54.7292 33.125 59.1875ZM75.875 59.1875L72.4375 56.4375C76.3125 50.6875 80.9583 47.8125 86.375 47.8125C91.8333 47.8125 96.5 50.6875 100.375 56.4375L96.9375 59.1875C94.0208 54.7292 90.5 52.5 86.375 52.5C82.25 52.5 78.75 54.7292 75.875 59.1875ZM65 105.188C70.6667 105.188 76 104.229 81 102.312C75.5833 99.3542 70.25 97.875 65 97.875C59.75 97.875 54.4167 99.3542 49 102.312C54 104.229 59.3333 105.188 65 105.188ZM65 108.625C59.7917 108.625 54.6458 107.792 49.5625 106.125C44.5208 104.458 39.9375 102.229 35.8125 99.4375C31.7292 96.6458 28.4583 93.5417 26 90.125C23.5417 86.6667 22.3125 83.1875 22.3125 79.6875C22.3125 77.9792 22.6875 76.7708 23.4375 76.0625C24.1875 75.3125 25.2083 74.9375 26.5 74.9375C27.4583 74.9375 28.5208 75.0417 29.6875 75.25C30.8542 75.4167 32.1875 75.6667 33.6875 76C37.6875 76.9167 42.4583 77.7083 48 78.375C53.5833 79.0417 59.25 79.375 65 79.375C70.75 79.375 76.3958 79.0417 81.9375 78.375C87.5208 77.7083 92.3333 76.9167 96.375 76C97.875 75.6667 99.2083 75.4167 100.375 75.25C101.542 75.0417 102.583 74.9375 103.5 74.9375C104.833 74.9375 105.875 75.3125 106.625 76.0625C107.375 76.7708 107.75 77.9792 107.75 79.6875C107.75 83.1875 106.521 86.6667 104.062 90.125C101.604 93.5417 98.3125 96.6458 94.1875 99.4375C90.0625 102.229 85.4583 104.458 80.375 106.125C75.3333 107.792 70.2083 108.625 65 108.625ZM65 87.8125C68.9167 87.8125 73.1042 87.6667 77.5625 87.375C82.0208 87.0417 86.4792 86.5417 90.9375 85.875C95.3958 85.1667 99.5625 84.2917 103.438 83.25V79.8125C103.438 79.2292 103.229 78.875 102.812 78.75C102.438 78.5833 101.979 78.5625 101.438 78.6875C98.1042 79.4792 94.3125 80.1875 90.0625 80.8125C85.8125 81.4375 81.5 81.9375 77.125 82.3125C72.7917 82.6458 68.75 82.8125 65 82.8125C61.2917 82.8125 57.25 82.6458 52.875 82.3125C48.5 81.9375 44.1875 81.4375 39.9375 80.8125C35.7292 80.1875 31.9375 79.4792 28.5625 78.6875C28.0208 78.5625 27.5417 78.5833 27.125 78.75C26.75 78.875 26.5625 79.2292 26.5625 79.8125V83.25C30.4375 84.2917 34.6042 85.1667 39.0625 85.875C43.5208 86.5417 47.9792 87.0417 52.4375 87.375C56.9375 87.6667 61.125 87.8125 65 87.8125Z" fill="black"/>
</svg>
