<svg width="128" height="128" viewBox="0 0 128 128" fill="none" xmlns="http://www.w3.org/2000/svg">
<path d="M58.1796 51.3389C58.1796 56.2326 54.2137 60.1985 49.32 60.1985C44.4264 60.1985 40.4604 56.2326 40.4604 51.3389C40.4604 46.4453 44.4264 42.4794 49.32 42.4794C54.2137 42.4794 58.1796 46.4453 58.1796 51.3389Z" fill="black"/>
<path d="M87.539 51.3389C87.539 56.2326 83.573 60.1985 78.6794 60.1985C73.7858 60.1985 69.8198 56.2326 69.8198 51.3389C69.8198 46.4453 73.7858 42.4794 78.6794 42.4794C83.573 42.4794 87.539 46.4453 87.539 51.3389Z" fill="black"/>
<path d="M77.235 76.6609C77.235 83.9709 71.3104 89.8956 64.0003 89.8956C56.6902 89.8956 50.7656 83.9709 50.7656 76.6609C50.7656 69.3508 56.6902 63.4262 64.0003 63.4262C71.3104 63.4262 77.235 69.3508 77.235 76.6609Z" fill="black"/>
</svg>
