<svg width="128" height="128" viewBox="0 0 128 128" fill="none" xmlns="http://www.w3.org/2000/svg">
<path d="M80 80C75.7539 76.1997 70.1468 73.8889 64 73.8889C57.8532 73.8889 52.2461 76.1997 48 80" stroke="black" stroke-width="6" stroke-linecap="round"/>
<path d="M80 53.4723L95.0351 48" stroke="black" stroke-width="6" stroke-linecap="round"/>
<path d="M80.0103 56.4731C80.1939 60.6712 82.8053 64 85.9999 64C89.3136 64 91.9999 60.4183 91.9999 56C91.9999 54.7507 91.7852 53.5682 91.4021 52.5148L81.026 56.2914C80.6907 56.4134 80.3477 56.472 80.0103 56.4731Z" fill="black"/>
<path d="M48.0352 53.4723L33.0001 48" stroke="black" stroke-width="6" stroke-linecap="round"/>
<path d="M47.9897 56.4728C47.6636 56.4678 47.3328 56.4092 47.0091 56.2914L36.6019 52.5035C36.2163 53.5598 36 54.7462 36 56C36 60.4183 38.6863 64 42 64C45.1947 64 47.8062 60.671 47.9897 56.4728Z" fill="black"/>
</svg>
