<svg width="128" height="128" viewBox="0 0 128 128" fill="none" xmlns="http://www.w3.org/2000/svg">
<g clip-path="url(#clip0_104_593)">
<path d="M58.1796 51.3389C58.1796 56.2326 54.2137 60.1985 49.32 60.1985C44.4264 60.1985 40.4604 56.2326 40.4604 51.3389C40.4604 46.4453 44.4264 42.4794 49.32 42.4794C54.2137 42.4794 58.1796 46.4453 58.1796 51.3389Z" fill="white"/>
<path d="M87.539 51.3389C87.539 56.2326 83.573 60.1985 78.6794 60.1985C73.7858 60.1985 69.8198 56.2326 69.8198 51.3389C69.8198 46.4453 73.7858 42.4794 78.6794 42.4794C83.573 42.4794 87.539 46.4453 87.539 51.3389Z" fill="white"/>
<path d="M87.5394 89.8959H87.5312C80.0105 87.9595 72.1252 86.9306 64.0009 86.9306C55.8746 86.9306 47.9893 87.9616 40.4686 89.8959H40.4604C40.4604 76.8942 50.9992 66.3555 64.0009 66.3555C77.0006 66.3555 87.5394 76.8942 87.5394 89.8959Z" fill="white"/>
<path fill-rule="evenodd" clip-rule="evenodd" d="M68.7539 36.1202C68.9964 37.6873 70.4633 38.7611 72.0303 38.5186L86.2069 36.325C87.7739 36.0825 88.8477 34.6156 88.6052 33.0485C88.3627 31.4815 86.8958 30.4077 85.3288 30.6502L71.1522 32.8438C69.5852 33.0863 68.5114 34.5532 68.7539 36.1202Z" fill="white"/>
<path fill-rule="evenodd" clip-rule="evenodd" d="M59.2449 36.1202C59.4873 34.5532 58.4136 33.0863 56.8465 32.8438L42.67 30.6502C41.1029 30.4077 39.636 31.4815 39.3935 33.0485C39.1511 34.6156 40.2248 36.0825 41.7919 36.325L55.9684 38.5186C57.5355 38.7611 59.0024 37.6873 59.2449 36.1202Z" fill="white"/>
</g>
<defs>
<clipPath id="clip0_104_593">
<rect width="128" height="128" fill="white"/>
</clipPath>
</defs>
</svg>
