<svg width="130" height="130" viewBox="0 0 130 130" fill="none" xmlns="http://www.w3.org/2000/svg">
<path d="M65 104.688C61.4583 104.688 57.9167 103.854 54.375 102.188C50.8333 100.521 47.3958 98.2292 44.0625 95.3125L47.125 91.8125C50.0417 94.3542 53 96.3542 56 97.8125C59 99.2708 62 100 65 100C68.0417 100 71.0417 99.2708 74 97.8125C77 96.3542 79.9583 94.3542 82.875 91.8125L86 95.3125C82.6667 98.2292 79.2292 100.521 75.6875 102.188C72.1458 103.854 68.5833 104.688 65 104.688ZM39.875 67.75C37.25 67.75 34.6875 67.1458 32.1875 65.9375C29.6875 64.6875 27.3333 62.8542 25.125 60.4375L28.375 57.5625C31.875 61.4375 35.7083 63.375 39.875 63.375C44.0833 63.375 47.9167 61.4375 51.375 57.5625L54.625 60.4375C52.4583 62.8542 50.1042 64.6875 47.5625 65.9375C45.0625 67.1458 42.5 67.75 39.875 67.75ZM24.3125 44.75L20.9375 42.0625C26.3125 35.3958 33.6875 31.6042 43.0625 30.6875L43.8125 35C35.6042 35.75 29.1042 39 24.3125 44.75ZM90.125 67.75C84.8333 67.75 79.9167 65.3125 75.375 60.4375L78.625 57.5625C82.125 61.4375 85.9583 63.375 90.125 63.375C94.3333 63.375 98.1667 61.4375 101.625 57.5625L104.875 60.4375C102.708 62.8542 100.354 64.6875 97.8125 65.9375C95.3125 67.1458 92.75 67.75 90.125 67.75ZM105.688 44.75C100.896 39 94.3958 35.75 86.1875 35L86.9375 30.6875C96.3125 31.6042 103.688 35.3958 109.062 42.0625L105.688 44.75Z" fill="black"/>
</svg>
