<svg width="130" height="130" viewBox="0 0 130 130" fill="none" xmlns="http://www.w3.org/2000/svg">
<path d="M54.4375 106.062C52.5208 106.062 51 105.5 49.875 104.375C48.75 103.208 48.1875 101.708 48.1875 99.875C48.1875 97.7083 48.9792 95.6458 50.5625 93.6875C52.1875 91.7292 54.2708 90.125 56.8125 88.875C59.3958 87.625 62.125 87 65 87C67.9167 87 70.6458 87.625 73.1875 88.875C75.7708 90.125 77.8542 91.7292 79.4375 93.6875C81.0625 95.6458 81.875 97.7083 81.875 99.875C81.875 101.708 81.3125 103.208 80.1875 104.375C79.0625 105.5 77.5417 106.062 75.625 106.062C74.125 106.062 72.4375 105.812 70.5625 105.312C68.7292 104.771 66.875 104.5 65 104.5C63.125 104.5 61.25 104.771 59.375 105.312C57.5417 105.812 55.8958 106.062 54.4375 106.062ZM39.875 66.5C37.2083 66.5 34.5833 65.8958 32 64.6875C29.4583 63.4375 27.1667 61.6042 25.125 59.1875L28.4375 56.3125C31.7292 60.1875 35.5417 62.125 39.875 62.125C44.25 62.125 48.0833 60.1875 51.375 56.3125L54.6875 59.1875C52.6458 61.6042 50.3333 63.4375 47.75 64.6875C45.2083 65.8958 42.5833 66.5 39.875 66.5ZM90.125 66.5C87.4583 66.5 84.8333 65.8958 82.25 64.6875C79.7083 63.4375 77.4167 61.6042 75.375 59.1875L78.6875 56.3125C81.9792 60.1875 85.7917 62.125 90.125 62.125C94.5 62.125 98.3333 60.1875 101.625 56.3125L104.938 59.1875C102.896 61.6042 100.583 63.4375 98 64.6875C95.4583 65.8958 92.8333 66.5 90.125 66.5ZM72.5 41.875L58.9375 37.5L59.875 34.5L73.5 24.9375L73.625 26.8125L63.875 23.6875L65 20.125L77.75 24.1875L76.8125 27.25L63.5 36.8125L63 34.8125L73.75 38.1875L72.5 41.875ZM97.3125 33.8125L83.1875 31.875L83.625 28.6875L95.4375 16.8125L95.9375 18.875L85.625 17.5L86.1875 13.75L99.4375 15.5L99 18.6875L87.5625 30.4375L87.1875 28.5625L97.875 29.9375L97.3125 33.8125ZM122.5 24.6875L106.5 21L107.25 17.5625L122.25 4.75L122.562 7.125L110.812 4.4375L111.75 0.375L126.75 3.75L126 7.25L111 20.1875L110.75 17.6875L123.5 20.5L122.5 24.6875Z" fill="white"/>
</svg>
