<svg width="130" height="130" viewBox="0 0 130 130" fill="none" xmlns="http://www.w3.org/2000/svg">
<path d="M65 97.375C55.125 97.375 45.6667 94.3333 36.625 88.25L39.375 84.0625C47.6667 89.6042 56.2083 92.375 65 92.375C73.7917 92.375 82.3333 89.6042 90.625 84.0625L93.375 88.25C84.3333 94.3333 74.875 97.375 65 97.375ZM42.375 60C40.2083 60 38.3542 59.1458 36.8125 57.4375C35.3125 55.7292 34.5625 53.4583 34.5625 50.625C34.5625 47.7917 35.3125 45.5208 36.8125 43.8125C38.3542 42.1042 40.2083 41.25 42.375 41.25C44.5417 41.25 46.375 42.1042 47.875 43.8125C49.4167 45.5208 50.1875 47.7917 50.1875 50.625C50.1875 53.4583 49.4167 55.7292 47.875 57.4375C46.375 59.1458 44.5417 60 42.375 60ZM87.625 60C85.4583 60 83.6042 59.1458 82.0625 57.4375C80.5625 55.7292 79.8125 53.4583 79.8125 50.625C79.8125 47.7917 80.5625 45.5208 82.0625 43.8125C83.6042 42.1042 85.4583 41.25 87.625 41.25C89.7917 41.25 91.625 42.1042 93.125 43.8125C94.6667 45.5208 95.4375 47.7917 95.4375 50.625C95.4375 53.4583 94.6667 55.7292 93.125 57.4375C91.625 59.1458 89.7917 60 87.625 60Z" fill="black"/>
</svg>
