<svg width="130" height="130" viewBox="0 0 130 130" fill="none" xmlns="http://www.w3.org/2000/svg">
<path d="M23.5 79.125C22.5833 78.6667 22.3333 77.9583 22.75 77L26.1875 69.8125C26.6458 68.8125 27.3542 68.5625 28.3125 69.0625C29.2708 69.5208 29.5208 70.2292 29.0625 71.1875L25.625 78.375C25.1667 79.375 24.4583 79.625 23.5 79.125ZM30.375 80.875C29.4167 80.375 29.1667 79.6667 29.625 78.75L34.6875 68.0625C35.1458 67.0625 35.8542 66.8125 36.8125 67.3125C37.7708 67.8125 38.0208 68.5208 37.5625 69.4375L32.5 80.125C32.0417 81.125 31.3333 81.375 30.375 80.875ZM38.875 79.125C37.9583 78.6667 37.7083 77.9583 38.125 77L41.5625 69.8125C42.0208 68.8125 42.7292 68.5625 43.6875 69.0625C44.6458 69.5208 44.8958 70.2292 44.4375 71.1875L41 78.375C40.5417 79.375 39.8333 79.625 38.875 79.125ZM65 99.875C57.1667 99.875 49.0625 97.5208 40.6875 92.8125L43.1875 88.4375C50.6875 92.7292 57.9583 94.875 65 94.875C72.0417 94.875 79.3125 92.7292 86.8125 88.4375L89.3125 92.8125C80.9375 97.5208 72.8333 99.875 65 99.875ZM34.875 59.375L30 58.375C30.8333 54.375 32.3542 51.3125 34.5625 49.1875C36.8125 47.0625 39.6458 46 43.0625 46C46.4792 46 49.3125 47.0625 51.5625 49.1875C53.8125 51.3125 55.3333 54.375 56.125 58.375L51.25 59.375C50.0833 53.7917 47.3542 51 43.0625 51C38.7708 51 36.0417 53.7917 34.875 59.375ZM86.3125 79.125C85.3958 78.6667 85.1458 77.9583 85.5625 77L89 69.8125C89.4583 68.8125 90.1667 68.5625 91.125 69.0625C92.0833 69.5208 92.3333 70.2292 91.875 71.1875L88.4375 78.375C87.9792 79.375 87.2708 79.625 86.3125 79.125ZM93.1875 80.875C92.2292 80.375 91.9792 79.6667 92.4375 78.75L97.5 68.0625C97.9583 67.0625 98.6667 66.8125 99.625 67.3125C100.583 67.8125 100.833 68.5208 100.375 69.4375L95.3125 80.125C94.8542 81.125 94.1458 81.375 93.1875 80.875ZM101.688 79.125C100.771 78.6667 100.521 77.9583 100.938 77L104.375 69.8125C104.833 68.8125 105.542 68.5625 106.5 69.0625C107.458 69.5208 107.708 70.2292 107.25 71.1875L103.812 78.375C103.354 79.375 102.646 79.625 101.688 79.125ZM78.75 59.375L73.875 58.375C74.7083 54.375 76.2292 51.3125 78.4375 49.1875C80.6875 47.0625 83.5208 46 86.9375 46C90.3542 46 93.1875 47.0625 95.4375 49.1875C97.6875 51.3125 99.2083 54.375 100 58.375L95.125 59.375C93.9583 53.7917 91.2292 51 86.9375 51C82.6458 51 79.9167 53.7917 78.75 59.375Z" fill="black"/>
</svg>
