<svg width="128" height="128" viewBox="0 0 128 128" fill="none" xmlns="http://www.w3.org/2000/svg">
<path d="M43.0627 57.6106C45.0943 57.248 47.1826 57.0475 49.3195 57.0475C51.4564 57.0475 53.5447 57.248 55.5763 57.6106C57.1846 56.0064 58.1791 53.7905 58.1791 51.3396C58.1791 46.446 54.2132 42.48 49.3195 42.48C44.4259 42.48 40.46 46.446 40.46 51.3396C40.46 53.7905 41.4545 56.0064 43.0627 57.6106Z" fill="black"/>
<path d="M75.5193 69.5825C71.8369 68.6346 67.9763 68.1322 63.9982 68.1322C60.0221 68.1322 56.1615 68.6346 52.4791 69.5825H52.4751C52.4751 75.9466 57.6341 81.1076 63.9982 81.1076C70.3644 81.1076 75.5234 75.9466 75.5234 69.5825H75.5193Z" fill="black"/>
<path d="M72.4216 57.6106C74.4532 57.248 76.5415 57.0475 78.6784 57.0475C80.8153 57.0475 82.9036 57.248 84.9352 57.6106C86.5435 56.0064 87.538 53.7905 87.538 51.3396C87.538 46.446 83.5721 42.48 78.6784 42.48C73.7848 42.48 69.8188 46.446 69.8188 51.3396C69.8188 53.7905 70.8134 56.0064 72.4216 57.6106Z" fill="black"/>
</svg>
