<svg width="130" height="130" viewBox="0 0 130 130" fill="none" xmlns="http://www.w3.org/2000/svg">
<path d="M46.6875 102.375L43.9375 98.5625C50.9375 93.5625 57.9583 91.0625 65 91.0625C72.25 91.0625 79.2708 93.5625 86.0625 98.5625L83.3125 102.375C77.2708 97.9583 71.1667 95.75 65 95.75C58.9583 95.75 52.8542 97.9583 46.6875 102.375ZM43 71.375C40.9583 71.375 39.1458 70.625 37.5625 69.125C35.9792 67.625 35.1875 65.7917 35.1875 63.625C35.1875 63.1667 35.25 62.6875 35.375 62.1875C35.5 61.6458 35.7292 61.125 36.0625 60.625C34.5625 60.7083 32.9167 61.0208 31.125 61.5625C29.3333 62.1042 27.6667 62.7083 26.125 63.375L24.625 59.25C27.0417 58.0417 29.5417 57.125 32.125 56.5C34.75 55.8333 37.125 55.5 39.25 55.5C42.5 55.5 45.2083 56.1875 47.375 57.5625C49.5417 58.8958 50.625 60.9167 50.625 63.625C50.625 65.7917 49.875 67.625 48.375 69.125C46.9167 70.625 45.125 71.375 43 71.375ZM20.75 50.75L17.875 47.5C20.7083 45.0417 24.0208 43.25 27.8125 42.125C31.6042 40.9583 36.1875 40.375 41.5625 40.375V44.75C36.6458 44.75 32.5625 45.2292 29.3125 46.1875C26.0625 47.1458 23.2083 48.6667 20.75 50.75ZM97.875 71.375C95.8333 71.375 94.0208 70.625 92.4375 69.125C90.8542 67.625 90.0625 65.7917 90.0625 63.625C90.0625 63.1667 90.125 62.6875 90.25 62.1875C90.4167 61.6458 90.6458 61.125 90.9375 60.625C89.4792 60.7083 87.8333 61.0208 86 61.5625C84.2083 62.1042 82.5417 62.7083 81 63.375L79.5 59.25C81.9583 58.0417 84.4792 57.125 87.0625 56.5C89.6875 55.8333 92.0417 55.5 94.125 55.5C97.375 55.5 100.083 56.1875 102.25 57.5625C104.458 58.8958 105.562 60.9167 105.562 63.625C105.562 65.7917 104.812 67.625 103.312 69.125C101.854 70.625 100.042 71.375 97.875 71.375ZM109.25 50.75C106.833 48.6667 104 47.1458 100.75 46.1875C97.5 45.2292 93.3958 44.75 88.4375 44.75V40.375C93.8542 40.375 98.4583 40.9583 102.25 42.125C106.042 43.25 109.333 45.0417 112.125 47.5L109.25 50.75Z" fill="white"/>
</svg>
