<svg width="130" height="130" viewBox="0 0 130 130" fill="none" xmlns="http://www.w3.org/2000/svg">
<path d="M39.125 107.688C37.125 107.688 35.4167 107 34 105.625C32.5833 104.25 31.875 102.25 31.875 99.625C31.875 93.9167 33.3125 88.8542 36.1875 84.4375C39.1042 80.0208 43.0625 76.5625 48.0625 74.0625C53.0625 71.5625 58.7083 70.3125 65 70.3125C71.2917 70.3125 76.9375 71.5625 81.9375 74.0625C86.9375 76.5625 90.8958 80.0208 93.8125 84.4375C96.7292 88.8542 98.1875 93.9167 98.1875 99.625C98.1875 102.25 97.4583 104.25 96 105.625C94.5833 107 92.875 107.688 90.875 107.688C89 107.688 86.6875 107.167 83.9375 106.125C81.1875 105.042 78.1875 103.979 74.9375 102.938C71.7292 101.896 68.4167 101.375 65 101.375C61.625 101.375 58.3125 101.896 55.0625 102.938C51.8125 103.979 48.8125 105.042 46.0625 106.125C43.3125 107.167 41 107.688 39.125 107.688ZM39.625 85.875H90.25C87.6667 82.125 84.1667 79.2292 79.75 77.1875C75.3333 75.1042 70.4167 74.0625 65 74.0625C59.5417 74.0625 54.5833 75.1042 50.125 77.1875C45.7083 79.2292 42.2083 82.125 39.625 85.875ZM36.625 61.125C34.4583 61.125 32.1875 60.9167 29.8125 60.5L30.5625 55.875C32.8958 56.25 34.9583 56.4375 36.75 56.4375C40.8333 56.4375 43.9167 55.4792 46 53.5625C48.0833 51.6042 49.375 48.5625 49.875 44.4375L54.5625 45.0625C53.2292 55.7708 47.25 61.125 36.625 61.125ZM36.3125 38.375L34.0625 34.5625C38.4375 32.3542 41.9167 30.0417 44.5 27.625C47.125 25.1667 49.1458 22.3333 50.5625 19.125L54.5 20.75C52.9583 24.4167 50.7292 27.6667 47.8125 30.5C44.8958 33.2917 41.0625 35.9167 36.3125 38.375ZM93.375 61.125C82.7083 61.125 76.75 55.7708 75.5 45.0625L80.125 44.4375C80.625 48.5625 81.9375 51.6042 84.0625 53.5625C86.1875 55.4792 89.2708 56.4375 93.3125 56.4375C95.1042 56.4375 97.1458 56.25 99.4375 55.875L100.188 60.5C97.8125 60.9167 95.5417 61.125 93.375 61.125ZM93.75 38.375C89 35.9167 85.1667 33.2917 82.25 30.5C79.3333 27.6667 77.0833 24.4167 75.5 20.75L79.5 19.125C80.9167 22.3333 82.9167 25.1667 85.5 27.625C88.125 30.0417 91.625 32.3542 96 34.5625L93.75 38.375Z" fill="white"/>
</svg>
