<svg width="128" height="128" viewBox="0 0 128 128" fill="none" xmlns="http://www.w3.org/2000/svg">
<path d="M58.1801 51.3389C58.1801 56.2326 54.2141 60.1985 49.3205 60.1985C44.4269 60.1985 40.4609 56.2326 40.4609 51.3389C40.4609 46.4453 44.4269 42.4794 49.3205 42.4794C54.2141 42.4794 58.1801 46.4453 58.1801 51.3389Z" fill="black"/>
<path d="M87.5395 51.3389C87.5395 56.2326 83.5735 60.1985 78.6799 60.1985C73.7863 60.1985 69.8203 56.2326 69.8203 51.3389C69.8203 46.4453 73.7863 42.4794 78.6799 42.4794C83.5735 42.4794 87.5395 46.4453 87.5395 51.3389Z" fill="black"/>
<path d="M87.5312 69.3207C80.0105 67.3863 72.1252 66.3553 63.9989 66.3553C55.8746 66.3553 47.9893 67.3863 40.4686 69.3207H40.4604C40.4604 82.3224 50.9992 92.8611 63.9989 92.8611C77.0006 92.8611 87.5394 82.3224 87.5394 69.3207H87.5312Z" fill="black"/>
</svg>
