<svg width="321" height="122" viewBox="0 0 321 122" fill="none" xmlns="http://www.w3.org/2000/svg">
<path fill-rule="evenodd" clip-rule="evenodd" d="M190.348 0.0101515C201.736 -0.180633 213.046 2.26498 223.353 7.12681C235.269 12.7405 245.452 21.4761 252.829 32.4114C260.206 43.3466 264.504 56.076 265.268 69.2565L265.534 69.2575C281.812 71.1014 296.706 79.3169 306.976 92.1166C313.953 100.811 318.411 111.144 320.025 122H0.0249023C3.25645 115.467 7.90902 109.663 13.7191 105.057C23.8995 96.9867 36.8256 93.2327 49.7309 94.5977L50.57 94.2026C51.6699 85.6825 54.5215 77.4836 58.9446 70.1263C63.3677 62.769 69.2658 56.4125 76.2655 51.4599C83.2651 46.5074 91.2139 43.0666 99.6085 41.3549C108.003 39.6431 116.661 39.6976 125.033 41.5157L125.198 41.2288C131.234 29.0192 140.507 18.7128 152 11.4417C163.492 4.17052 176.761 0.215346 190.348 0.0101515Z" fill="white"/>
</svg>
